<svg id="mermaid-1620981105015" width="100%" xmlns="http://www.w3.org/2000/svg" xmlns:xlink="http://www.w3.org/1999/xlink" height="1039" style="max-width: 1004.03515625px;" viewBox="-20 -20 1004.03515625 1039"><style>#mermaid-1620981105015{font-family:"trebuchet ms",verdana,arial,sans-serif;font-size:16px;fill:#333;}#mermaid-1620981105015 .error-icon{fill:hsl(20,100%,95%);}#mermaid-1620981105015 .error-text{fill:rgb(12.75,12.75,12.75);stroke:rgb(12.75,12.75,12.75);}#mermaid-1620981105015 .edge-thickness-normal{stroke-width:2px;}#mermaid-1620981105015 .edge-thickness-thick{stroke-width:3.5px;}#mermaid-1620981105015 .edge-pattern-solid{stroke-dasharray:0;}#mermaid-1620981105015 .edge-pattern-dashed{stroke-dasharray:3;}#mermaid-1620981105015 .edge-pattern-dotted{stroke-dasharray:2;}#mermaid-1620981105015 .marker{fill:#0b0b0b;stroke:#0b0b0b;}#mermaid-1620981105015 .marker.cross{stroke:#0b0b0b;}#mermaid-1620981105015 svg{font-family:"trebuchet ms",verdana,arial,sans-serif;font-size:16px;}#mermaid-1620981105015 g.classGroup text{fill:hsl(200,60%,80%);fill:#000;stroke:none;font-family:"trebuchet ms",verdana,arial,sans-serif;font-size:10px;}#mermaid-1620981105015 g.classGroup text .title{font-weight:bolder;}#mermaid-1620981105015 .classTitle{font-weight:bolder;}#mermaid-1620981105015 .node rect,#mermaid-1620981105015 .node circle,#mermaid-1620981105015 .node ellipse,#mermaid-1620981105015 .node polygon,#mermaid-1620981105015 .node path{fill:#cceeff;stroke:hsl(200,60%,80%);stroke-width:1px;}#mermaid-1620981105015 .divider{stroke:hsl(200,60%,80%);stroke:1;}#mermaid-1620981105015 g.clickable{cursor:pointer;}#mermaid-1620981105015 g.classGroup rect{fill:#cceeff;stroke:hsl(200,60%,80%);}#mermaid-1620981105015 g.classGroup line{stroke:hsl(200,60%,80%);stroke-width:1;}#mermaid-1620981105015 .classLabel .box{stroke:none;stroke-width:0;fill:#cceeff;opacity:0.5;}#mermaid-1620981105015 .classLabel .label{fill:hsl(200,60%,80%);font-size:10px;}#mermaid-1620981105015 .relation{stroke:#0b0b0b;stroke-width:1;fill:none;}#mermaid-1620981105015 .dashed-line{stroke-dasharray:3;}#mermaid-1620981105015 #compositionStart,#mermaid-1620981105015 .composition{fill:#0b0b0b !important;stroke:#0b0b0b !important;stroke-width:1;}#mermaid-1620981105015 #compositionEnd,#mermaid-1620981105015 .composition{fill:#0b0b0b !important;stroke:#0b0b0b !important;stroke-width:1;}#mermaid-1620981105015 #dependencyStart,#mermaid-1620981105015 .dependency{fill:#0b0b0b !important;stroke:#0b0b0b !important;stroke-width:1;}#mermaid-1620981105015 #dependencyStart,#mermaid-1620981105015 .dependency{fill:#0b0b0b !important;stroke:#0b0b0b !important;stroke-width:1;}#mermaid-1620981105015 #extensionStart,#mermaid-1620981105015 .extension{fill:#0b0b0b !important;stroke:#0b0b0b !important;stroke-width:1;}#mermaid-1620981105015 #extensionEnd,#mermaid-1620981105015 .extension{fill:#0b0b0b !important;stroke:#0b0b0b !important;stroke-width:1;}#mermaid-1620981105015 #aggregationStart,#mermaid-1620981105015 .aggregation{fill:#cceeff !important;stroke:#0b0b0b !important;stroke-width:1;}#mermaid-1620981105015 #aggregationEnd,#mermaid-1620981105015 .aggregation{fill:#cceeff !important;stroke:#0b0b0b !important;stroke-width:1;}#mermaid-1620981105015 .edgeTerminals{font-size:11px;}#mermaid-1620981105015:root{--mermaid-font-family:"trebuchet ms",verdana,arial,sans-serif;}</style><g></g><defs><marker id="extensionStart" class="extension" refX="0" refY="7" markerWidth="190" markerHeight="240" orient="auto"><path d="M 1,7 L18,13 V 1 Z"></path></marker></defs><defs><marker id="extensionEnd" refX="19" refY="7" markerWidth="20" markerHeight="28" orient="auto"><path d="M 1,1 V 13 L18,7 Z"></path></marker></defs><defs><marker id="compositionStart" class="extension" refX="0" refY="7" markerWidth="190" markerHeight="240" orient="auto"><path d="M 18,7 L9,13 L1,7 L9,1 Z"></path></marker></defs><defs><marker id="compositionEnd" refX="19" refY="7" markerWidth="20" markerHeight="28" orient="auto"><path d="M 18,7 L9,13 L1,7 L9,1 Z"></path></marker></defs><defs><marker id="aggregationStart" class="extension" refX="0" refY="7" markerWidth="190" markerHeight="240" orient="auto"><path d="M 18,7 L9,13 L1,7 L9,1 Z"></path></marker></defs><defs><marker id="aggregationEnd" refX="19" refY="7" markerWidth="20" markerHeight="28" orient="auto"><path d="M 18,7 L9,13 L1,7 L9,1 Z"></path></marker></defs><defs><marker id="dependencyStart" class="extension" refX="0" refY="7" markerWidth="190" markerHeight="240" orient="auto"><path d="M 5,7 L9,13 L1,7 L9,1 Z"></path></marker></defs><defs><marker id="dependencyEnd" refX="19" refY="7" markerWidth="20" markerHeight="28" orient="auto"><path d="M 18,7 L9,13 L14,7 L9,1 Z"></path></marker></defs><g id="classid-CApp-284" class="classGroup" transform="translate(633.3046875,0 )"><rect x="0" y="0" width="290.96875" height="238" class=" "></rect><text y="15" x="0"><tspan class="title" x="133.34375">CApp</tspan></text><line x1="0" y1="21" y2="21" x2="290.96875"></line><text x="5" y="31" fill="white" class="classText"><tspan x="5">-m_renderLoopOn : bool</tspan><tspan x="5" dy="10">-m_listen : bool</tspan><tspan x="5" dy="10">-m_error : int</tspan><tspan x="5" dy="10">-m_mainFrame : CMain*</tspan><tspan x="5" dy="10">-wsa : WSADATA</tspan><tspan x="5" dy="10">-m_sinsize : int</tspan><tspan x="5" dy="10">-err : int</tspan><tspan x="5" dy="10">-m_transfertData : CDataStructure*</tspan><tspan x="5" dy="10">server SOCKET</tspan><tspan x="5" dy="10">sock SOCKET</tspan><tspan x="5" dy="10">sinserv SOCKADDR_IN</tspan><tspan x="5" dy="10">sin SOCKADDR_IN</tspan></text><line x1="0" y1="147" y2="147" x2="290.96875"></line><text x="5" y="162" fill="white" class="classText"><tspan x="5">+CApp()</tspan><tspan x="5" dy="10">+~CApp()</tspan><tspan x="5" dy="10">-update() : void</tspan><tspan x="5" dy="10">+OnInit() : virtual bool</tspan><tspan x="5" dy="10">+updateState() : void</tspan><tspan x="5" dy="10">+activateIdleLoop(on : bool) : void</tspan><tspan x="5" dy="10">+OnIdle(evt : wxIdleEvent&amp;) : void</tspan><tspan x="5" dy="10">+OnSend(username : wxString, textMessage : wxString) : void</tspan></text></g><g id="classid-CDataStructure-285" class="classGroup" transform="translate(0,388 )"><rect x="0" y="0" width="261.375" height="78" class=" "></rect><text y="15" x="0"><tspan class="title" x="94.84375">CDataStructure</tspan></text><line x1="0" y1="21" y2="21" x2="261.375"></line><text x="5" y="31" fill="white" class="classText"><tspan x="5">-m_name : char[256]</tspan><tspan x="5" dy="10">-m_message : char[65536]</tspan></text><line x1="0" y1="47" y2="47" x2="261.375"></line><text x="5" y="62" fill="white" class="classText"><tspan x="5">+CDataStructure()</tspan><tspan x="5" dy="10">+CDataStructure(name : wxString, message : wxString)</tspan></text></g><g id="classid-CMain-286" class="classGroup" transform="translate(311.375,288 )"><rect x="0" y="0" width="296.15625" height="278" class=" "></rect><text y="15" x="0"><tspan class="title" x="134.1328125">CMain</tspan></text><line x1="0" y1="21" y2="21" x2="296.15625"></line><text x="5" y="31" fill="white" class="classText"><tspan x="5">#m_mainMenuBar : wxMenuBar*</tspan><tspan x="5" dy="10">#m_fileMenu : wxMenu*</tspan><tspan x="5" dy="10">#m_helpMenu : wxMenu*</tspan><tspan x="5" dy="10">#m_settings : CSettings*</tspan><tspan x="5" dy="10">-m_panelOutput : wxScrolledWindow*</tspan><tspan x="5" dy="10">-m_panelInput : wxPanel*</tspan><tspan x="5" dy="10">-secondaryOutputSizer : wxBoxSizer*</tspan><tspan x="5" dy="10">-secondaryInputSizer : wxBoxSizer*</tspan><tspan x="5" dy="10">-m_textCtrlBox : wxTextCtrl*</tspan><tspan x="5" dy="10">-m_inputText : wxString</tspan><tspan x="5" dy="10">-m_inputFilePath : wxString</tspan><tspan x="5" dy="10">-m_contentList : list&lt;CContent*&gt;</tspan></text><line x1="0" y1="147" y2="147" x2="296.15625"></line><text x="5" y="162" fill="white" class="classText"><tspan x="5">+CMain()</tspan><tspan x="5" dy="10">+~CMain()</tspan><tspan x="5" dy="10">+getSettings()</tspan><tspan x="5" dy="10">+getInputText()</tspan><tspan x="5" dy="10">+getInputContentPath()</tspan><tspan x="5" dy="10">+addContent(wxString username, wxString textMessage) : void</tspan><tspan x="5" dy="10">+updateContent() : void</tspan><tspan x="5" dy="10">-OnQuit() : void</tspan><tspan x="5" dy="10">-OnSettings() : void</tspan><tspan x="5" dy="10">-OnAbout() : void</tspan><tspan x="5" dy="10">-OnButtonSend() : void</tspan><tspan x="5" dy="10">-OnButtonAddfile() : void</tspan></text></g><g id="classid-CContent-287" class="classGroup" transform="translate(76.546875,621 )"><rect x="0" y="0" width="619.046875" height="108" class=" "></rect><text y="15" x="0"><tspan class="title" x="287.3125">CContent</tspan></text><line x1="0" y1="21" y2="21" x2="619.046875"></line><text x="5" y="31" fill="white" class="classText"><tspan x="5">-m_contentTime:std::chrono: : time_point&lt;std::chrono::system_clock&gt;</tspan><tspan x="5" dy="10">-m_username : wxString</tspan><tspan x="5" dy="10">-m_textMessage : wxString</tspan><tspan x="5" dy="10">-m_filePath : wxString</tspan><tspan x="5" dy="10">-m_imagePanel : CImagePanel*</tspan></text><line x1="0" y1="77" y2="77" x2="619.046875"></line><text x="5" y="92" fill="white" class="classText"><tspan x="5">+CContent(parent : wxWindow*, id : wxWindowID, username : const wxString, textMessage : const wxString, filePath : const wxString)</tspan><tspan x="5" dy="10">+~CContent()</tspan></text></g><g id="classid-CImagePanel-288" class="classGroup" transform="translate(201.2734375,784 )"><rect x="0" y="0" width="369.59375" height="118" class=" "></rect><text y="15" x="0"><tspan class="title" x="155.3125">CImagePanel</tspan></text><line x1="0" y1="21" y2="21" x2="369.59375"></line><text x="5" y="31" fill="white" class="classText"><tspan x="5">-m_image : wxImage</tspan><tspan x="5" dy="10">-m_resized : wxBitMap</tspan></text><line x1="0" y1="47" y2="47" x2="369.59375"></line><text x="5" y="62" fill="white" class="classText"><tspan x="5">+CImagePanel(parent : wxPanel*, filePath : wxString, format : wxBitmapType)</tspan><tspan x="5" dy="10">+CImagePanel(parent : wxFrame*, filePath : wxString, format : wxBitmapType)</tspan><tspan x="5" dy="10">+paintEvent(evt : wxPaintEvent&amp;)</tspan><tspan x="5" dy="10">+paintNow() : void</tspan><tspan x="5" dy="10">+OnSize(evt : wxPaintEvent&amp;) : void</tspan><tspan x="5" dy="10">+render(dc : wxDC&amp;) : void</tspan></text></g><g id="classid-CSettings-289" class="classGroup" transform="translate(745.59375,616 )"><rect x="0" y="0" width="151.234375" height="118" class=" "></rect><text y="15" x="0"><tspan class="title" x="53.703125">CSettings</tspan></text><line x1="0" y1="21" y2="21" x2="151.234375"></line><text x="5" y="31" fill="white" class="classText"><tspan x="5">-m_IPAdress01Input : wxString</tspan><tspan x="5" dy="10">-m_IPAdress02Input : wxString</tspan><tspan x="5" dy="10">-m_IPAdress03Input : wxString</tspan><tspan x="5" dy="10">-m_IPAdress04Input : wxString</tspan><tspan x="5" dy="10">-m_portInput : wxString</tspan><tspan x="5" dy="10">-m_usernameInput : wxString</tspan></text><line x1="0" y1="87" y2="87" x2="151.234375"></line><text x="5" y="102" fill="white" class="classText"><tspan x="5">+onButtonOk() : void</tspan><tspan x="5" dy="10">+onButtonCancel() : void</tspan></text></g><g id="classid-CObervable-290" class="classGroup" transform="translate(731.640625,804 )"><rect x="0" y="0" width="179.140625" height="78" class=" "></rect><text y="15" x="0"><tspan class="title" x="62.390625">CObervable</tspan></text><line x1="0" y1="21" y2="21" x2="179.140625"></line><text x="5" y="31" fill="white" class="classText"><tspan x="5">-m_observer : CObserver*</tspan></text><line x1="0" y1="37" y2="37" x2="179.140625"></line><text x="5" y="52" fill="white" class="classText"><tspan x="5">+atach(observer : CObserver*) : void</tspan><tspan x="5" dy="10">+detach() : void</tspan><tspan x="5" dy="10">+notify() : void</tspan></text></g><g id="classid-CObserver-291" class="classGroup" transform="translate(802.95703125,952 )"><rect x="0" y="0" width="161.078125" height="47" class=" "></rect><text y="15" x="0"><tspan class="title" x="55.8828125">CObserver</tspan></text><line x1="0" y1="21" y2="21" x2="161.078125"></line><text x="5" y="31" fill="white" class="classText"></text><line x1="0" y1="26" y2="26" x2="161.078125"></line><text x="5" y="41" fill="white" class="classText"><tspan x="5">+update() virtual void (Abstract)</tspan></text></g><g id="classid-Winsock2-292" class="classGroup" transform="translate(783.19921875,412 )"><rect x="0" y="0" width="55.296875" height="30" class=" "></rect><text y="15" x="0"><tspan class="title" x="5">Winsock2</tspan></text><line x1="0" y1="21" y2="21" x2="55.296875"></line><text x="5" y="31" fill="white" class="classText"></text><line x1="0" y1="26" y2="26" x2="55.296875"></line><text x="5" y="41" fill="white" class="classText"></text></g><path d="M633.3046875,184.6041100917431L604.3294270833334,197.6700917431193C575.3541666666666,210.7360733944954,517.4036458333334,236.8680366972477,488.4283854166667,254.10068501529054C459.453125,271.3333333333333,459.453125,279.6666666666667,459.453125,283.8333333333333L459.453125,288" id="edge160" class="relation" marker-end="url(#dependencyEnd)"></path><g class="classLabel"><rect class="box" x="500.703125" y="217.4375" width="69.109375" height="16.015625"></rect><text class="label" x="534.9838812840044" y="228.94047951494144" fill="red" text-anchor="middle">m_mainFrame</text></g><g class="cardinality"><text class="type1" x="619.8542927463765" y="185.18452457441475" fill="black" font-size="6">1</text></g><g class="cardinality"><text class="type2" x="469.453125" y="275.5" fill="black" font-size="6">1</text></g><path d="M633.3046875,151.32479477319575L549.53515625,169.93732897766313C465.765625,188.5498631821305,298.2265625,225.77493159106527,214.45703125,265.22079912886596C130.6875,304.6666666666667,130.6875,346.3333333333333,130.6875,367.1666666666667L130.6875,388" id="edge161" class="relation" marker-end="url(#dependencyEnd)"></path><g class="classLabel"><rect class="box" x="281.59375" y="209.203125" width="79.53125" height="16.015625"></rect><text class="label" x="320.98395258930657" y="220.7185262952361" fill="red" text-anchor="middle">m_transfertData</text></g><g class="cardinality"><text class="type1" x="620.0177689551701" y="149.1550492620679" fill="black" font-size="6">1</text></g><g class="cardinality"><text class="type2" x="140.6875" y="375.5" fill="black" font-size="6">1</text></g><path d="M916.78955078125,238L921.6215006510416,242.16666666666666C926.4534505208334,246.33333333333334,936.1173502604166,254.66666666666666,940.9493001302084,286.1666666666667C945.78125,317.6666666666667,945.78125,372.3333333333333,945.78125,427C945.78125,481.6666666666667,945.78125,536.3333333333334,945.78125,577.6666666666666C945.78125,619,945.78125,647,945.78125,675C945.78125,703,945.78125,731,945.78125,759C945.78125,787,945.78125,815,945.78125,843C945.78125,871,945.78125,899,940.4302915592783,917.1666666666666C935.0793331185567,935.3333333333334,924.3774162371134,943.6666666666666,919.0264577963917,947.8333333333334L913.6754993556701,952" id="edge162" class="relation" marker-start="url(#compositionStart)"></path><path d="M857.0539008246528,238L859.7942663122107,242.16666666666666C862.5346317997686,246.33333333333334,868.0153627748842,254.66666666666666,870.7557282624421,286.1666666666667C873.49609375,317.6666666666667,873.49609375,372.3333333333333,873.49609375,427C873.49609375,481.6666666666667,873.49609375,536.3333333333334,870.9025840153769,567.8333333333334C868.309074280754,599.3333333333334,863.122054811508,607.6666666666666,860.5285450768848,611.8333333333334L857.9350353422619,616" id="edge163" class="relation dashed-line" marker-end="url(#dependencyEnd)"></path><path d="M805.2819281684028,238L806.2095495153357,242.16666666666666C807.1371708622686,246.33333333333334,808.9924135561342,254.66666666666666,809.9200349030671,283.6666666666667C810.84765625,312.6666666666667,810.84765625,362.3333333333333,810.84765625,387.1666666666667L810.84765625,412" id="edge164" class="relation dashed-line" marker-end="url(#dependencyEnd)"></path><path d="M607.53125,538.6182268663148L619.11328125,547.3485223885956C630.6953125,556.0788179108765,653.859375,573.5394089554383,676.8697916666666,588.9275935110958C699.8802083333334,604.3157780667534,722.7369791666666,617.6315561335067,734.1653645833334,624.2894451668834L745.59375,630.9473342002601" id="edge165" class="relation" marker-end="url(#dependencyEnd)"></path><g class="classLabel"><rect class="box" x="647.28125" y="577.1875" width="54.328125" height="16.015625"></rect><text class="label" x="673.9629338471036" y="588.6930556687278" fill="red" text-anchor="middle">m_settings</text></g><g class="cardinality"><text class="type1" x="614.503464326497" y="550.1350939483555" fill="black" font-size="6">1</text></g><g class="cardinality"><text class="type2" x="739.8267686551087" y="616.0144200115401" fill="black" font-size="6">1</text></g><path d="M821.2109375,734L821.2109375,738.1666666666666C821.2109375,742.3333333333334,821.2109375,750.6666666666666,821.2109375,762.3333333333334C821.2109375,774,821.2109375,789,821.2109375,796.5L821.2109375,804" id="edge166" class="relation" marker-start="url(#compositionStart)"></path><path d="M821.2109375,882L821.2109375,889.5C821.2109375,897,821.2109375,912,826.5618959407217,923.6666666666666C831.9128543814433,935.3333333333334,842.6147712628866,943.6666666666666,847.9657297036083,947.8333333333334L853.3166881443299,952" id="edge167" class="relation" marker-end="url(#dependencyEnd)"></path><path d="M397.2567168445122,566L395.3923161204268,570.1666666666666C393.5279153963415,574.3333333333334,389.7991139481707,582.6666666666666,387.9347132240853,591.8333333333334C386.0703125,601,386.0703125,611,386.0703125,616L386.0703125,621" id="edge168" class="relation" marker-end="url(#dependencyEnd)"></path><g class="classLabel"><rect class="box" x="351.515625" y="580.796875" width="70.140625" height="16.015625"></rect><text class="label" x="386.0703125" y="592.305697880515" fill="red" text-anchor="middle">m_contentList</text></g><g class="cardinality"><text class="type1" x="387.5873648762367" y="575.3676908848236" fill="black" font-size="6">1</text></g><g class="cardinality"><text class="type2" x="396.0703125" y="608.5" fill="black" font-size="6">0..*</text></g><path d="M386.0703125,729L386.0703125,734C386.0703125,739,386.0703125,749,386.0703125,758.1666666666666C386.0703125,767.3333333333334,386.0703125,775.6666666666666,386.0703125,779.8333333333334L386.0703125,784" id="edge169" class="relation" marker-end="url(#dependencyEnd)"></path><g class="classLabel"><rect class="box" x="351.234375" y="745" width="69.71875" height="16"></rect><text class="label" x="386.0703125" y="756.5" fill="red" text-anchor="middle">m_imagePanel</text></g><g class="cardinality"><text class="type1" x="381.0703125" y="741.5" fill="black" font-size="6">1</text></g><g class="cardinality"><text class="type2" x="396.0703125" y="771.5" fill="black" font-size="6">1</text></g></svg>